<svg width="128" height="128" viewBox="0 0 128 128" fill="none" xmlns="http://www.w3.org/2000/svg">
<rect width="128" height="128" fill="#323232"/>
<path fill-rule="evenodd" clip-rule="evenodd" d="M67.184 66.5527C66.102 65.1293 65.561 64.4176 64.8997 64.1624C64.3205 63.9388 63.6787 63.9388 63.0995 64.1624C62.4383 64.4176 61.8973 65.1293 60.8152 66.5527L42.4804 90.6721C40.9112 92.7364 40.1266 93.7685 40.1407 94.6334C40.1529 95.386 40.5036 96.093 41.0953 96.5582C41.7753 97.0928 43.0718 97.0928 45.6648 97.0928H82.3344C84.9274 97.0928 86.2239 97.0928 86.9039 96.5582C87.4957 96.093 87.8463 95.386 87.8585 94.6334C87.8726 93.7685 87.088 92.7364 85.5188 90.6721L67.184 66.5527ZM55.2 31.0928C55.2 29.6927 55.2 28.9926 55.4725 28.4579C55.7122 27.9875 56.0946 27.605 56.565 27.3653C57.0998 27.0928 57.7999 27.0928 59.2 27.0928H68.8C70.2001 27.0928 70.9002 27.0928 71.435 27.3653C71.9054 27.605 72.2878 27.9875 72.5275 28.4579C72.8 28.9926 72.8 29.6927 72.8 31.0928V49.5434L86.0806 36.4404C87.0652 35.469 87.5575 34.9832 88.1238 34.8009C88.6219 34.6405 89.1579 34.6405 89.6561 34.8009C90.2223 34.9832 90.7146 35.469 91.6992 36.4404L98.449 43.0999C99.4579 44.0953 99.9623 44.593 100.151 45.1684C100.317 45.6744 100.317 46.2202 100.151 46.7262C99.9623 47.3016 99.4579 47.7993 98.449 48.7947L85.2451 61.822H104C105.4 61.822 106.1 61.822 106.635 62.0945C107.105 62.3342 107.488 62.7166 107.728 63.187C108 63.7218 108 64.4219 108 65.822V75.1866C108 76.5867 108 77.2868 107.728 77.8216C107.488 78.292 107.105 78.6744 106.635 78.9141C106.1 79.1866 105.4 79.1866 104 79.1866H24C22.5999 79.1866 21.8998 79.1866 21.365 78.9141C20.8946 78.6744 20.5122 78.292 20.2725 77.8216C20 77.2868 20 76.5867 20 75.1866V65.822C20 64.4219 20 63.7218 20.2725 63.187C20.5122 62.7166 20.8946 62.3342 21.365 62.0945C21.8998 61.822 22.5999 61.822 24 61.822H42.7546L29.5508 48.795C28.5419 47.7996 28.0374 47.3019 27.8488 46.7265C27.6828 46.2205 27.6828 45.6747 27.8488 45.1686C28.0374 44.5932 28.5419 44.0955 29.5508 43.1001L36.3005 36.4407C37.2851 35.4692 37.7775 34.9835 38.3437 34.8012C38.8419 34.6408 39.3778 34.6408 39.8759 34.8012C40.4422 34.9835 40.9345 35.4692 41.9191 36.4406L55.2 49.5436V31.0928Z" fill="#506CF7"/>
</svg>
